<svg id="Group_65" data-name="Group 65" xmlns="http://www.w3.org/2000/svg" width="25.292" height="25.415" viewBox="0 0 25.292 25.415">
  <path id="Path_22" data-name="Path 22" d="M-255.827,1294.445c-2.121,0-4.241.013-6.362,0-2.722-.019-3.8-1.8-2.564-4.256.289-.575.622-1.13.962-1.678a1.7,1.7,0,0,0,.056-1.817q-1.841-3.716-3.588-7.478a1.926,1.926,0,0,0-1.969-1.374,1.279,1.279,0,0,1-1.077-2.012,1.053,1.053,0,0,1,.665-.382c.357-.068.739.009,1.1-.04,1.439-.2,2.51.156,2.984,1.7.3.976,1.158,1.04,2.037,1.037,4.333-.013,8.667-.006,13-.005,1.291,0,2.583-.024,3.872.011s1.764.772,1.161,1.917c-1.394,2.65-2.846,5.27-4.305,7.884a2.477,2.477,0,0,1-2.416,1.286c-2.581-.047-5.163-.021-7.745-.01a2.8,2.8,0,0,0-2.708,2.253.571.571,0,0,0,.313.465,5.244,5.244,0,0,0,1.1.055c4.057,0,8.113-.006,12.17.009,1.149,0,1.286.15,1.323,1.1.042,1.079-.143,1.31-1.235,1.321C-251.309,1294.459-253.568,1294.444-255.827,1294.445Zm-.426-14.084c-2.12,0-4.24-.018-6.359.006-1.257.015-1.373.233-.836,1.4.618,1.337,1.266,2.662,1.862,4.01a1.865,1.865,0,0,0,1.934,1.238q3.109-.057,6.22,0a2.119,2.119,0,0,0,2.1-1.267c.7-1.347,1.443-2.675,2.166-4.012.644-1.193.552-1.356-.865-1.368C-252.105,1280.346-254.179,1280.359-256.253,1280.361Z" transform="translate(270.58 -1275.357)" fill="#fff"/>
  <path id="Path_23" data-name="Path 23" d="M-201,1351.9a2.481,2.481,0,0,1-2.449,2.475,2.718,2.718,0,0,1-2.383-2.453,2.379,2.379,0,0,1,2.582-2.438A2.2,2.2,0,0,1-201,1351.9Z" transform="translate(223.757 -1328.96)" fill="#fff"/>
  <path id="Path_24" data-name="Path 24" d="M-246.68,1351.917a2.382,2.382,0,0,1-2.32,2.428,2.46,2.46,0,0,1-2.4-2.362,2.27,2.27,0,0,1,2.337-2.5A2.212,2.212,0,0,1-246.68,1351.917Z" transform="translate(256.713 -1328.959)" fill="#fff"/>
</svg>
