<svg xmlns="http://www.w3.org/2000/svg" width="146" height="146.012" viewBox="0 0 146 146.012">
  <g id="categoryIcon" transform="translate(0 0)">
    <path id="Path_9996" data-name="Path 9996" d="M-2640.512-645.73c.34-1.854.716-3.7,1.014-5.564a157.722,157.722,0,0,1,7.085-27.813,135.358,135.358,0,0,1,23.2-41.384,137.756,137.756,0,0,1,43.426-34.727,152.38,152.38,0,0,1,35.647-13.252,23.674,23.674,0,0,1,2.918-.626c1.135-.115.969-.578.624-1.362-.686-1.559-1.311-3.148-1.891-4.75a31.811,31.811,0,0,1-1.541-9.373,3.194,3.194,0,0,1,2.168-3.179h1.426a3.724,3.724,0,0,1,2.149,3.671,25.537,25.537,0,0,0,4.233,13.693,26.462,26.462,0,0,0,20.746,12.359c.757.064,1.519.1,2.27.209a2.8,2.8,0,0,1,2.519,2.652,2.623,2.623,0,0,1-2.439,2.821,49.034,49.034,0,0,1-6.227-.4,10.772,10.772,0,0,1-2.764-.652,4.447,4.447,0,0,0-3.3.114c-5.625,2.032-9.564,7.481-9.446,13.122a11.142,11.142,0,0,0,9.479,10.532,8.42,8.42,0,0,0,8.978-7,6.165,6.165,0,0,0-4.734-6.557,4.3,4.3,0,0,0-4.686,2.447,1.752,1.752,0,0,0,1.065,2.5,4.154,4.154,0,0,0,.7.121,2.778,2.778,0,0,1,2.548,3.03,2.871,2.871,0,0,1-3.03,2.59,7.424,7.424,0,0,1-6.75-9.872,10.01,10.01,0,0,1,14.924-4.936,11.975,11.975,0,0,1,2.817,17.974c-5.609,6.917-15.37,7.324-21.947.73a15.957,15.957,0,0,1-4.4-16.448q.07-.547.14-1.093a21.422,21.422,0,0,1,8.462-10.57c.5-.309.359-.525-.031-.814-1.218-.9-2.431-1.816-3.617-2.762-1.038-.829-1.01-.849-1.336.418q-1.633,6.329-3.274,12.658a10.154,10.154,0,0,0-.163,1.107q-.092.535-.185,1.07a7.97,7.97,0,0,0-.672,1.123c-2.023,5.065-4.022,10.139-6.044,15.2a6.031,6.031,0,0,1-.752,1.363,2.735,2.735,0,0,1-3.3.911,2.693,2.693,0,0,1-1.652-2.991,9.531,9.531,0,0,1,.75-2.137,140.015,140.015,0,0,0,7.92-22.08c.122-.466.168-.952.25-1.429-.327.337-.682.651-.976,1.015-12.1,14.982-24.754,29.48-37.832,43.61q-27.036,29.214-56.43,56.06c-.824.754-1.562,1.6-2.34,2.41l-.126.172.1-.2a8.078,8.078,0,0,0,1.077-.261,177.726,177.726,0,0,0,52.312-31.487,145.608,145.608,0,0,0,21.12-22.7,9.841,9.841,0,0,1,1.011-1.192,2.781,2.781,0,0,1,3.638-.312,2.752,2.752,0,0,1,.815,3.559,10.354,10.354,0,0,1-1.026,1.531,157.79,157.79,0,0,1-34.287,33.353,187.237,187.237,0,0,1-45.378,24.055c-3.427,1.251-6.925,2.312-10.416,3.378-2.376.726-3.138.393-4.539-1.636Zm90.7-110.359a12.122,12.122,0,0,0-1.341.38,146.007,146.007,0,0,0-19.1,9.495c-20.062,11.857-36.127,27.667-47.452,48.113-2.409,4.35-4.382,8.941-6.542,13.427a2.772,2.772,0,0,0-.126.763,3.547,3.547,0,0,0,.688-.055,14.553,14.553,0,0,1,8.956.4,2.155,2.155,0,0,0,.643.023c-.048-.177-.1-.352-.144-.531a31.9,31.9,0,0,1-1.159-5.381,15.149,15.149,0,0,1,21.77-14.251,14.507,14.507,0,0,1,6.356,5.737c.507.857.814.84,1.392.139.482-.585,1.057-1.092,1.57-1.654a4.563,4.563,0,0,0,.432-.674c-.265-.09-.528-.184-.794-.267a2.1,2.1,0,0,0-.282-.037,15.27,15.27,0,0,1-12.717-13.505,15.291,15.291,0,0,1,9.631-15.6,15.254,15.254,0,0,1,20.092,9.54q.362,1.107.729,2.214c.57-.557,1.161-1.094,1.708-1.673.983-1.042.964-1.04-.2-1.913a13.361,13.361,0,0,1-3.174-18.406,13.49,13.49,0,0,1,19.546-3.161c.756.562,1.381,1.3,2.1,1.911.148.127.445.081.673.115a2.054,2.054,0,0,0-.122-.7c-.11-.191-.357-.3-.542-.451a10.6,10.6,0,0,1-3.568-11.256c.272-.94.637-1.852.959-2.777l.144-.093c-.031,0-.082-.009-.09.005A.392.392,0,0,0-2549.809-756.089Zm-23.109,40.714a9.624,9.624,0,0,0-9.506-9.542,9.591,9.591,0,0,0-9.586,9.453,9.648,9.648,0,0,0,9.666,9.535A9.546,9.546,0,0,0-2572.918-715.374Zm-36.836,25.32a9.545,9.545,0,0,0,5.774,8.729,1.648,1.648,0,0,0,2.112-.412c3.254-3.319,6.534-6.615,9.887-9.833a1.813,1.813,0,0,0,.411-2.469,9.664,9.664,0,0,0-10.782-5.249A9.431,9.431,0,0,0-2609.754-690.054Zm-19.113,20.306a9.094,9.094,0,0,0,4.4,7.688,1.523,1.523,0,0,0,2.2-.215c3.34-3.245,6.749-6.419,10.179-9.568a1.392,1.392,0,0,0,.368-1.951,9.156,9.156,0,0,0-10.193-4.733A8.932,8.932,0,0,0-2628.867-669.748Zm63.351-62.045a7.811,7.811,0,0,0,3.836,6.271,1.206,1.206,0,0,0,1.893-.236c2.775-3.241,5.614-6.428,8.463-9.6a1.026,1.026,0,0,0,.08-1.562,8.09,8.09,0,0,0-8.76-2.826A8.05,8.05,0,0,0-2565.516-731.793Zm25.325-23.728a5.175,5.175,0,0,0-5.2,3.882,5.068,5.068,0,0,0,2.169,5.441c.524.334.856.388,1.3-.158q2.544-3.157,5.177-6.239c.467-.548.49-.951-.042-1.432A5.437,5.437,0,0,0-2540.191-755.521Zm-93.287,103.258a2.268,2.268,0,0,0,.374-.193c1.69-1.521,3.384-3.039,5.049-4.588.092-.085.018-.516-.114-.645-1.018-.984-2.072-1.929-3.108-2.894-.321-.3-.554-.372-.662.163q-.766,3.828-1.534,7.656A2.846,2.846,0,0,0-2633.478-652.263Zm104.854-110.488c-.189-.045-.325-.124-.434-.1q-3.572.935-7.138,1.9a2.163,2.163,0,0,0-.366.174,1.759,1.759,0,0,0,.322.39c1.095.736,2.229,1.417,3.289,2.2.475.35.645.111.887-.2q1.548-1.95,3.1-3.9C-2528.88-762.391-2528.8-762.508-2528.625-762.751Z" transform="translate(2640.512 787.759)" fill="#007530"/>
    <path id="Path_9997" data-name="Path 9997" d="M-2364.542-595.868a2.889,2.889,0,0,1,2.866,2.783,2.839,2.839,0,0,1-2.776,2.848,2.83,2.83,0,0,1-2.879-2.752A2.932,2.932,0,0,1-2364.542-595.868Z" transform="translate(2464.911 664.411)" fill="#007530"/>
  </g>
</svg>
