<svg xmlns="http://www.w3.org/2000/svg" width="29.824" height="31.603" viewBox="0 0 29.824 31.603">
  <g id="chat" transform="translate(-2197.396 -386.229)">
    <g id="Group_40133" data-name="Group 40133">
      <path id="Path_56561" data-name="Path 56561" d="M2280.071,463.535c-2.2-1.948-4.4-3.891-6.591-5.852a1.169,1.169,0,0,0-.87-.277q-3.762.007-7.524,0c-.2,0-.4-.038-.6-.058a3.729,3.729,0,0,1,.34-.477c1.13-1.159,2.278-2.3,3.394-3.473a1.337,1.337,0,0,1,1.076-.438c2.85.015,5.7.028,8.55,0a3.518,3.518,0,0,0,3.47-2.3,4.612,4.612,0,0,0,.273-1.664c.026-3.009.012-6.019.013-9.028,0-.911.046-.935.909-.561a4.364,4.364,0,0,1,2.488,2.827c.041.126.089.249.134.374v11.355a4.361,4.361,0,0,1-4.136,3.607c-.318.024-.345.211-.324.472.118,1.472.21,2.947.347,4.418a1.086,1.086,0,0,1-.4,1.08Z" transform="translate(-57.913 -45.703)" fill="#fff"/>
      <path id="Path_56562" data-name="Path 56562" d="M2217.78,386.229a4.789,4.789,0,0,1,2.93,1.846,4.068,4.068,0,0,1,.806,2.349c.006,3.464.03,6.929-.009,10.393a4.31,4.31,0,0,1-3.474,4.031,8.27,8.27,0,0,1-1.424.127c-2.143.013-4.285.017-6.427,0a1.762,1.762,0,0,0-1.285.465c-1.932,1.7-3.9,3.367-5.848,5.045-.069.059-.142.114-.212.173a.77.77,0,0,1-.942.137.861.861,0,0,1-.4-.881c.117-1.475.211-2.952.341-4.426.029-.328.005-.494-.376-.543a4.555,4.555,0,0,1-4.065-3.662V389.923a16.055,16.055,0,0,1,1-2.038,4.363,4.363,0,0,1,2.7-1.656Zm-8.252,1.525c-2.576,0-5.153-.007-7.729,0a2.843,2.843,0,0,0-2.875,2.851q-.012,4.993,0,9.987a2.8,2.8,0,0,0,2.031,2.694,8.737,8.737,0,0,0,1.621.157.789.789,0,0,1,.854.843,7.16,7.16,0,0,1-.043.75c-.07.908-.144,1.816-.21,2.725a4.1,4.1,0,0,0,.019.473,3.416,3.416,0,0,0,.441-.276c1.559-1.333,3.121-2.663,4.664-4.014a1.883,1.883,0,0,1,1.351-.51c2.348.026,4.7.013,7.045.008a4.885,4.885,0,0,0,.952-.061,2.946,2.946,0,0,0,2.375-3.071c.011-3.146,0-6.293,0-9.439,0-.182-.025-.363-.039-.545a2.975,2.975,0,0,0-2.935-2.593C2214.545,387.8,2212.036,387.754,2209.528,387.754Z" fill="#fff"/>
      <path id="Path_56563" data-name="Path 56563" d="M2246.491,431.741h-5.119a2.378,2.378,0,0,1-.544-.02.713.713,0,0,1-.6-.652.653.653,0,0,1,.454-.75,2.4,2.4,0,0,1,.734-.1q5.085-.009,10.17,0a2.343,2.343,0,0,1,.732.107.66.66,0,0,1,.438.762.672.672,0,0,1-.6.641,3.316,3.316,0,0,1-.545.015Z" transform="translate(-36.969 -37.964)" fill="#fff"/>
      <path id="Path_56564" data-name="Path 56564" d="M2244.834,458.746q-1.74,0-3.479,0a2.046,2.046,0,0,1-.543-.025.718.718,0,0,1-.576-.674.659.659,0,0,1,.477-.736,2,2,0,0,1,.6-.094q3.582-.009,7.164,0a1.9,1.9,0,0,1,.534.078.673.673,0,0,1,.518.775.712.712,0,0,1-.668.665,5.246,5.246,0,0,1-.545.011Z" transform="translate(-36.977 -61.272)" fill="#fff"/>
    </g>
  </g>
</svg>
