<svg id="customer" xmlns="http://www.w3.org/2000/svg" width="50.807" height="50.807" viewBox="0 0 50.807 50.807">
  <g id="Layer_x0020_1" transform="translate(7.054 6.351)">
    <path id="Path_56566" data-name="Path 56566" d="M1.979,13.255a13.876,13.876,0,0,0-.659,4.227v4.142a.3.3,0,0,0,.3.3H34.952a.3.3,0,0,0,.3-.3V17.483A14.025,14.025,0,0,0,21.265,3.5H15.305A13.855,13.855,0,0,0,9.6,4.722,14.084,14.084,0,0,0,5.649,7.391c.054.152.111.306.172.457a5.133,5.133,0,0,1,.681-.3A1.946,1.946,0,0,1,9,8.182c.1.169.213.336.32.5a7.488,7.488,0,0,1,1.384,3.373,1.153,1.153,0,0,1-.012.525c-.323,1.094-1.776,1.872-2.74,2.261-.117.047-.234.1-.353.14a5.186,5.186,0,0,1-2.019.295,4.78,4.78,0,0,1-3.046-1.332.758.758,0,0,1-.166-.171q-.2-.255-.394-.52Z" transform="translate(1.451 16.182)" fill="#fff"/>
    <path id="Path_56567" data-name="Path 56567" d="M10.9.853A8.438,8.438,0,1,1,4.937,3.325,8.411,8.411,0,0,1,10.9.853Z" transform="translate(8.832 -0.853)" fill="#fff"/>
    <path id="Path_56568" data-name="Path 56568" d="M7.956,16.151c.637-.428,2.242-1.338,2.941-.207.095.153.212.335.326.513a6.9,6.9,0,0,1,1.295,3.129.674.674,0,0,1,.007.278c-.057.209-.406,1.074-2.392,1.878-.106.043-.227.094-.333.132a4.293,4.293,0,0,1-4.455-.913.907.907,0,0,1-.105-.106A19.051,19.051,0,0,1,1.7,13.648,19.337,19.337,0,0,1,1.117,5.9a2.709,2.709,0,0,1,.159-.64A4.28,4.28,0,0,1,4.464,2.5c.166-.036.374-.063.547-.086,1.981-.266,2.731.235,2.929.413a.337.337,0,0,1,.107.148,6.847,6.847,0,0,1,.495,3.478c-.01.2-.02.411-.026.607-.039,1.329-1.884,1.343-2.65,1.292a22.687,22.687,0,0,0,.785,3.967,22.691,22.691,0,0,0,1.3,3.828Z" transform="translate(-0.948 8.733)" fill="#fff"/>
  </g>
  <rect id="Rectangle_9357" data-name="Rectangle 9357" width="50.807" height="50.807" fill="none"/>
</svg>
