<svg xmlns="http://www.w3.org/2000/svg" xmlns:xlink="http://www.w3.org/1999/xlink" width="54" height="54" viewBox="0 0 54 54">
  <defs>
    <clipPath id="clip-path">
      <rect id="Rectangle_18274" data-name="Rectangle 18274" width="36.857" height="28.615" fill="#fff"/>
    </clipPath>
  </defs>
  <g id="Component_641_56" data-name="Component 641 – 56" transform="translate(2 2)">
    <g id="Ellipse_195" data-name="Ellipse 195" fill="#007530" stroke="#fff" stroke-width="2">
      <circle cx="25" cy="25" r="25" stroke="none"/>
      <circle cx="25" cy="25" r="26" fill="none"/>
    </g>
    <g id="Group_41783" data-name="Group 41783" transform="translate(7.572 10.693)">
      <g id="Group_41782" data-name="Group 41782" transform="translate(0 0)" clip-path="url(#clip-path)">
        <path id="Path_62243" data-name="Path 62243" d="M6.264,5.263c1.435,0,2.87-.02,4.3.01.572.012.812-.152.788-.761-.041-1.018-.013-2.038-.009-3.058a3.954,3.954,0,0,1,.041-.789A.689.689,0,0,1,12.477.118,3.338,3.338,0,0,1,13.2.655q3.606,3.273,7.2,6.559c1.25,1.147,1.258,2.193-.009,3.359C17.976,12.8,15.535,15,13.1,17.2c-.084.076-.157.183-.256.22-.334.127-.71.373-1.011.306-.467-.1-.489-.605-.49-1.033,0-.831,0-1.661,0-2.492-.005-1.193.093-1.123-1.083-1.124q-3.795,0-7.589,0c-1.892,0-2.65-.76-2.663-2.673C0,9.313-.01,8.217.015,7.123A1.7,1.7,0,0,1,1.847,5.276c1.472-.034,2.945-.008,4.417-.008v0" transform="translate(0 0)" fill="#fff"/>
        <path id="Path_62244" data-name="Path 62244" d="M83.267,60.269c-1.4,0-2.793-.007-4.189,0-.84.006-.848.018-.857.891-.01.943,0,1.887-.007,2.83a2.956,2.956,0,0,1-.1.891.644.644,0,0,1-.992.381,3.545,3.545,0,0,1-.721-.536q-3.561-3.235-7.116-6.477a2.618,2.618,0,0,1-1.007-1.587,2.093,2.093,0,0,1,.866-1.862q3.026-2.73,6.035-5.479c.531-.482,1.041-.992,1.608-1.426.241-.184.7-.371.891-.26a1.265,1.265,0,0,1,.513.9c.066,1.015.021,2.037.033,3.055.01.841.019.855.891.857,2.6.008,5.208,0,7.812,0,1.963,0,2.622.667,2.63,2.655,0,1.019.016,2.038,0,3.057a1.877,1.877,0,0,1-2.094,2.1c-1.4.02-2.793,0-4.189.005" transform="translate(-52.705 -36.757)" fill="#fff"/>
      </g>
    </g>
  </g>
</svg>
