<svg  style=""  xmlns="http://www.w3.org/2000/svg" width="23.809" height="23.809" viewBox="0 0 23.809 23.809">
  <g id="instagram" transform="translate(0 0)">
    <path id="Path_56233" data-name="Path 56233" d="M-300.015,108.306c3.18,0,3.556.013,4.811.07a6.6,6.6,0,0,1,2.211.411,3.68,3.68,0,0,1,1.368.89,3.7,3.7,0,0,1,.891,1.369,6.575,6.575,0,0,1,.41,2.21c.057,1.256.07,1.633.07,4.811s-.013,3.555-.07,4.81a6.577,6.577,0,0,1-.41,2.211,3.711,3.711,0,0,1-.891,1.369,3.68,3.68,0,0,1-1.368.89,6.582,6.582,0,0,1-2.211.41c-1.255.057-1.631.07-4.811.07s-3.555-.013-4.81-.07a6.566,6.566,0,0,1-2.21-.41,3.676,3.676,0,0,1-1.369-.89,3.711,3.711,0,0,1-.891-1.369,6.575,6.575,0,0,1-.41-2.211c-.057-1.255-.07-1.631-.07-4.81s.013-3.555.07-4.811a6.573,6.573,0,0,1,.41-2.21,3.7,3.7,0,0,1,.891-1.369,3.676,3.676,0,0,1,1.369-.89,6.588,6.588,0,0,1,2.21-.411c1.255-.057,1.631-.07,4.81-.07m0-2.145c-3.232,0-3.638.014-4.908.072a8.738,8.738,0,0,0-2.889.553,5.838,5.838,0,0,0-2.109,1.374,5.826,5.826,0,0,0-1.373,2.108,8.718,8.718,0,0,0-.553,2.89c-.058,1.27-.072,1.675-.072,4.908s.014,3.638.072,4.908a8.718,8.718,0,0,0,.553,2.89,5.826,5.826,0,0,0,1.373,2.108,5.838,5.838,0,0,0,2.109,1.374,8.769,8.769,0,0,0,2.889.553c1.27.057,1.676.071,4.908.071s3.639-.014,4.909-.071a8.769,8.769,0,0,0,2.889-.553,5.838,5.838,0,0,0,2.109-1.374,5.824,5.824,0,0,0,1.372-2.108,8.717,8.717,0,0,0,.553-2.89c.058-1.27.072-1.675.072-4.908s-.014-3.638-.072-4.908a8.717,8.717,0,0,0-.553-2.89,5.824,5.824,0,0,0-1.372-2.108,5.838,5.838,0,0,0-2.109-1.374,8.739,8.739,0,0,0-2.889-.553c-1.27-.058-1.676-.072-4.909-.072" transform="translate(311.919 -106.161)"  fill="#d40017"/>
    <path id="Path_56234" data-name="Path 56234" d="M-300.73,111.238a6.113,6.113,0,0,0-6.113,6.113,6.113,6.113,0,0,0,6.113,6.113,6.113,6.113,0,0,0,6.114-6.113,6.113,6.113,0,0,0-6.114-6.113m0,10.081a3.968,3.968,0,0,1-3.968-3.968,3.968,3.968,0,0,1,3.968-3.968,3.969,3.969,0,0,1,3.969,3.968,3.969,3.969,0,0,1-3.969,3.968" transform="translate(312.634 -105.446)" fill="#d40017"/>
    <path id="Path_56235" data-name="Path 56235" d="M-294.309,111.2a1.429,1.429,0,0,1-1.428,1.428,1.429,1.429,0,0,1-1.429-1.428,1.429,1.429,0,0,1,1.429-1.428,1.428,1.428,0,0,1,1.428,1.428" transform="translate(313.997 -105.652)" fill="#d40017"/>
  </g>
</svg>
