<svg xmlns="http://www.w3.org/2000/svg" width="23.136" height="18.802" viewBox="0 0 23.136 18.802">
  <path id="twitter" d="M-207.825,125.024a13.429,13.429,0,0,0,7.275,2.133,13.425,13.425,0,0,0,13.492-14.12,9.626,9.626,0,0,0,2.368-2.457,9.486,9.486,0,0,1-2.726.747,4.755,4.755,0,0,0,2.086-2.626,9.512,9.512,0,0,1-3.013,1.152,4.738,4.738,0,0,0-3.466-1.5,4.75,4.75,0,0,0-4.623,5.828,13.47,13.47,0,0,1-9.783-4.959,4.752,4.752,0,0,0,1.469,6.338,4.746,4.746,0,0,1-2.152-.594,4.753,4.753,0,0,0,3.807,4.714,4.735,4.735,0,0,1-2.143.081,4.749,4.749,0,0,0,4.433,3.3A9.537,9.537,0,0,1-207.825,125.024Z" transform="translate(207.825 -108.356)" fill="#d40017"/>
</svg>
