<svg  style=""  xmlns="http://www.w3.org/2000/svg" width="23.817" height="23.823" viewBox="0 0 23.817 23.823">
  <g id="whatsapp" transform="translate(0 0)">
    <path id="Path_56227" data-name="Path 56227" d="M-340.011,117.465a11.648,11.648,0,0,0-11.686-11.31,11.656,11.656,0,0,0-11.681,11.1c-.006.169-.011.339-.011.509a11.517,11.517,0,0,0,1.675,5.994l-2.107,6.224,6.476-2.058a11.709,11.709,0,0,0,5.65,1.445,11.648,11.648,0,0,0,11.692-11.605C-340.005,117.661-340.005,117.563-340.011,117.465Zm-11.686,10.05a9.8,9.8,0,0,1-5.409-1.614l-3.776,1.2,1.225-3.623a9.664,9.664,0,0,1-1.872-5.72,9.321,9.321,0,0,1,.049-.947,9.815,9.815,0,0,1,9.783-8.808A9.811,9.811,0,0,1-341.9,117c.022.252.033.5.033.761A9.8,9.8,0,0,1-351.7,127.515Z" transform="translate(363.822 -106.155)" fill="#d40017" fill-rule="evenodd"/>
    <path id="Path_56228" data-name="Path 56228" d="M-347.131,119.324c-.29-.141-1.7-.832-1.96-.924s-.454-.143-.646.141-.745.925-.909,1.111-.333.213-.623.072a7.738,7.738,0,0,1-2.3-1.412,8.505,8.505,0,0,1-1.594-1.966c-.164-.284-.016-.438.127-.58s.284-.334.432-.5l.1-.137a3.16,3.16,0,0,0,.18-.339.51.51,0,0,0-.022-.5c-.071-.143-.646-1.544-.886-2.113s-.477-.471-.646-.471-.356-.027-.548-.027a1.062,1.062,0,0,0-.767.356,3.189,3.189,0,0,0-1,2.376,3.613,3.613,0,0,0,.148.969,6.446,6.446,0,0,0,1.023,1.97,11.766,11.766,0,0,0,4.893,4.3c2.918,1.133,2.918.755,3.443.706a2.862,2.862,0,0,0,1.933-1.352,2.364,2.364,0,0,0,.17-1.353C-346.655,119.538-346.847,119.466-347.131,119.324Z" transform="translate(364.615 -105.376)" fill="#d40017" fill-rule="evenodd"/>
  </g>
</svg>
