<svg xmlns="http://www.w3.org/2000/svg" width="42.517" height="42.527" viewBox="0 0 42.517 42.527">
  <g id="whatsWhite" transform="translate(-301.742 -2103.237)">
    <path id="Path_56227" data-name="Path 56227" d="M-321.315,126.344a20.793,20.793,0,0,0-20.861-20.189,20.809,20.809,0,0,0-20.853,19.808c-.01.3-.02.6-.02.908a20.559,20.559,0,0,0,2.99,10.7l-3.762,11.11,11.56-3.674a20.9,20.9,0,0,0,10.086,2.58A20.793,20.793,0,0,0-321.3,126.872C-321.3,126.695-321.3,126.519-321.315,126.344Zm-20.861,17.941a17.484,17.484,0,0,1-9.656-2.882l-6.741,2.149,2.187-6.468a17.251,17.251,0,0,1-3.342-10.212,16.633,16.633,0,0,1,.088-1.69,17.522,17.522,0,0,1,17.464-15.723,17.514,17.514,0,0,1,17.491,16.055c.039.45.059.9.059,1.358A17.5,17.5,0,0,1-342.176,144.285Z" transform="translate(665.564 1997.082)" fill="#fff" fill-rule="evenodd"/>
    <path id="Path_56228" data-name="Path 56228" d="M-338.445,125.323c-.517-.253-3.031-1.485-3.5-1.65s-.81-.255-1.153.253-1.33,1.652-1.623,1.984-.595.381-1.112.128a13.815,13.815,0,0,1-4.114-2.521,15.185,15.185,0,0,1-2.845-3.509c-.293-.507-.029-.782.226-1.035.234-.234.507-.6.772-.89.067-.088.126-.165.185-.244a5.655,5.655,0,0,0,.322-.6.911.911,0,0,0-.039-.89c-.126-.255-1.153-2.756-1.582-3.772s-.851-.841-1.153-.841-.635-.049-.978-.049a1.9,1.9,0,0,0-1.369.635,5.692,5.692,0,0,0-1.788,4.242,6.449,6.449,0,0,0,.265,1.729,11.509,11.509,0,0,0,1.827,3.517c.253.332,3.538,5.629,8.735,7.672,5.21,2.022,5.21,1.348,6.147,1.261s3.031-1.222,3.45-2.413a4.22,4.22,0,0,0,.3-2.415C-337.6,125.706-337.937,125.578-338.445,125.323Z" transform="translate(671.398 2002.811)" fill="#fff" fill-rule="evenodd"/>
  </g>
</svg>
