<svg id="Group_41876" data-name="Group 41876" xmlns="http://www.w3.org/2000/svg" xmlns:xlink="http://www.w3.org/1999/xlink" width="28.109" height="20.307" viewBox="0 0 28.109 20.307">
  <defs>
    <clipPath id="clip-path">
      <rect id="Rectangle_18287" data-name="Rectangle 18287" width="28.109" height="20.306" fill="#007530"/>
    </clipPath>
  </defs>
  <g id="Group_41876-2" data-name="Group 41876" clip-path="url(#clip-path)">
    <path id="Path_62252" data-name="Path 62252" d="M14.058,1.388A3.006,3.006,0,0,1,15.346.263,2.78,2.78,0,0,1,16.508,0q5.559,0,11.118,0a.44.44,0,0,1,.484.484q0,7.417,0,14.834a.439.439,0,0,1-.485.482h-.2c0,.063-.008.118-.008.172q0,.9,0,1.8c0,.371-.162.533-.53.533q-4.919,0-9.837,0a.209.209,0,0,0-.24.169,2.621,2.621,0,0,1-2.262,1.8,3.189,3.189,0,0,1-1.859-.252A2.506,2.506,0,0,1,11.3,18.466a.207.207,0,0,0-.24-.168c-3.269,0-6.537,0-9.806.008a.5.5,0,0,1-.565-.57c.014-.583,0-1.166,0-1.749,0-.056,0-.112,0-.187H.485A.439.439,0,0,1,0,15.317Q0,13.5,0,11.679,0,6.112,0,.546C0,.153.154,0,.548,0H11.462a2.938,2.938,0,0,1,2.545,1.323c.011.016.025.032.051.066M.885,14.924H11.556a2.877,2.877,0,0,1,1.939.731c.032.028.069.051.121.091v-.212q0-6.278,0-12.555a2.071,2.071,0,0,0-2.109-2.1H.885Zm13.609.827c.047-.035.068-.048.087-.065a2.962,2.962,0,0,1,2.052-.764q5.2.008,10.4,0h.193V.877H27.05q-5.223,0-10.447,0a2.134,2.134,0,0,0-.449.045A2.056,2.056,0,0,0,14.494,3q0,6.262,0,12.524Zm-12.9.048v1.625h9.9c.375,0,.493.1.568.475a1.749,1.749,0,0,0,1.286,1.423,2.672,2.672,0,0,0,1.035.076,1.8,1.8,0,0,0,1.679-1.521c.065-.344.2-.454.555-.454h9.914V15.8h-9.9a2.061,2.061,0,0,0-2.13,2.062.438.438,0,1,1-.877-.006A2.061,2.061,0,0,0,11.5,15.8H1.591Z" transform="translate(0 0.001)" fill="#007530"/>
    <path id="Path_62253" data-name="Path 62253" d="M72.04,335.824H70.573a.458.458,0,0,1-.526-.524q0-1.015,0-2.03a.443.443,0,0,1,.5-.5q1.507,0,3.014,0a.439.439,0,0,1,.486.495q0,1.031,0,2.061a.448.448,0,0,1-.5.5c-.5,0-1,0-1.5,0m1.113-2.168H70.931v1.273h2.223Z" transform="translate(-67.858 -322.374)" fill="#007530"/>
    <path id="Path_62254" data-name="Path 62254" d="M72.032,202.9c.5,0,1.009,0,1.513,0a.434.434,0,0,1,.474.476q0,1.053,0,2.106a.438.438,0,0,1-.463.475q-1.537.006-3.073,0a.438.438,0,0,1-.458-.465q0-1.069,0-2.137a.431.431,0,0,1,.463-.455c.515,0,1.03,0,1.544,0m1.1.889H70.908v1.28h2.225Z" transform="translate(-67.835 -196.561)" fill="#007530"/>
    <path id="Path_62255" data-name="Path 62255" d="M72.034,73h1.513a.439.439,0,0,1,.485.482q0,1.045,0,2.091a.441.441,0,0,1-.483.484H70.522a.442.442,0,0,1-.485-.483q0-1.045,0-2.091A.442.442,0,0,1,70.52,73h1.513m-1.108,2.168h2.216V73.882H70.925Z" transform="translate(-67.848 -70.718)" fill="#007530"/>
    <path id="Path_62256" data-name="Path 62256" d="M229.558,108.784c-.682,0-1.364,0-2.046,0a.437.437,0,0,1-.136-.857.675.675,0,0,1,.185-.018h4.013a.442.442,0,1,1,0,.877h-2.015" transform="translate(-219.969 -104.536)" fill="#007530"/>
    <path id="Path_62257" data-name="Path 62257" d="M229.59,242.644c.677,0,1.353,0,2.03,0a.431.431,0,0,1,.45.545.448.448,0,0,1-.469.331c-.52,0-1.041,0-1.561,0q-1.233,0-2.467,0a.445.445,0,0,1-.468-.6.43.43,0,0,1,.44-.281h2.045" transform="translate(-219.981 -235.065)" fill="#007530"/>
    <path id="Path_62258" data-name="Path 62258" d="M229.6,367.657c.687,0,1.374,0,2.061,0a.42.42,0,0,1,.415.273.415.415,0,0,1-.118.481.581.581,0,0,1-.311.117c-1.364.008-2.727.007-4.091,0a.439.439,0,1,1,.014-.876c.677,0,1.353,0,2.03,0" transform="translate(-220.004 -356.174)" fill="#007530"/>
    <path id="Path_62259" data-name="Path 62259" d="M703.982,332.769c.5,0,1.01,0,1.515,0a.438.438,0,0,1,.484.481q0,1.046,0,2.093a.441.441,0,0,1-.474.48q-1.523.005-3.045,0a.44.44,0,0,1-.475-.478q0-1.054,0-2.108a.431.431,0,0,1,.465-.468c.51,0,1.02,0,1.53,0m1.117.89h-2.226v1.268H705.1Z" transform="translate(-680.06 -322.375)" fill="#007530"/>
    <path id="Path_62260" data-name="Path 62260" d="M703.989,202.9H705.5a.435.435,0,0,1,.477.473q0,1.053,0,2.106a.444.444,0,0,1-.476.479q-1.521,0-3.042,0a.441.441,0,0,1-.476-.478q0-1.053,0-2.106a.434.434,0,0,1,.475-.474h1.529m-1.121,2.169H705.1v-1.285h-2.227Z" transform="translate(-680.059 -196.564)" fill="#007530"/>
    <path id="Path_62261" data-name="Path 62261" d="M703.984,73H705.5a.442.442,0,0,1,.483.485q0,1.045,0,2.091a.442.442,0,0,1-.486.482h-3.027a.44.44,0,0,1-.482-.485q0-1.045,0-2.091a.439.439,0,0,1,.486-.481h1.513m-1.117,2.168h2.225V73.884h-2.225Z" transform="translate(-680.059 -70.718)" fill="#007530"/>
    <path id="Path_62262" data-name="Path 62262" d="M515.051,108.787c-.687,0-1.374,0-2.061,0a.437.437,0,0,1,0-.874q2.069,0,4.138,0a.438.438,0,0,1,.437.388.444.444,0,0,1-.325.473.747.747,0,0,1-.186.014h-2" transform="translate(-496.546 -104.54)" fill="#007530"/>
    <path id="Path_62263" data-name="Path 62263" d="M514.956,242.629h2a.442.442,0,0,1,.5.435.45.45,0,0,1-.5.441h-4.012a.461.461,0,0,1-.471-.289.415.415,0,0,1,.14-.489.663.663,0,0,1,.333-.1c.671-.009,1.343,0,2.014,0Z" transform="translate(-496.437 -235.05)" fill="#007530"/>
    <path id="Path_62264" data-name="Path 62264" d="M514.959,367.631h2a.441.441,0,0,1,.5.438.451.451,0,0,1-.5.439H512.94a.462.462,0,0,1-.47-.29.414.414,0,0,1,.13-.478.639.639,0,0,1,.33-.1c.676-.009,1.353,0,2.03,0" transform="translate(-496.438 -356.148)" fill="#007530"/>
  </g>
</svg>
