<svg xmlns="http://www.w3.org/2000/svg" xmlns:xlink="http://www.w3.org/1999/xlink" width="28.381" height="30" viewBox="0 0 28.381 30">
  <defs>
    <clipPath id="clip-path">
      <rect id="Rectangle_18289" data-name="Rectangle 18289" width="28.38" height="30" fill="#007530"/>
    </clipPath>
  </defs>
  <g id="Group_41875" data-name="Group 41875" transform="translate(0 -3)">
    <g id="Group_41880" data-name="Group 41880" transform="translate(0 3)" clip-path="url(#clip-path)">
      <path id="Path_62274" data-name="Path 62274" d="M14.8,0c.214.181.439.35.639.546q3.211,3.137,6.415,6.281a3.282,3.282,0,0,0,.664.618,1.407,1.407,0,0,1,.725,1.468c-.025,1.41-.008,2.82-.008,4.4-.611-.361-1.132-.638-1.612-.975-.109-.077-.1-.359-.1-.547-.011-.758,0-1.516,0-2.345-.271-.012-.5-.031-.727-.031q-2.954,0-5.908,0c-.955,0-1.23-.274-1.234-1.246-.006-1.891,0-3.782,0-5.674V1.756H1.794V27.238h.767c3.917,0,7.834.006,11.75-.008a.88.88,0,0,1,.9.463c.233.409.541.775.881,1.25-.3.014-.52.034-.743.034q-6.654,0-13.309,0C.78,28.977.384,28.693,0,27.522V1.435A1.814,1.814,0,0,1,1.169,0Zm5.515,7.65-4.911-4.6v4.6Z" fill="#007530"/>
      <path id="Path_62275" data-name="Path 62275" d="M118.857,129.579a2.033,2.033,0,0,0-.268-.164,9.618,9.618,0,0,1-5.62-6.33,18.905,18.905,0,0,1-.747-6.566c.261,0,.489,0,.718,0a9.314,9.314,0,0,0,5.69-1.831.653.653,0,0,1,.852-.028,12.827,12.827,0,0,0,4.9,1.921c.487.065.981.071,1.541.108.115,4.177-.371,8.122-3.737,11.047a21.47,21.47,0,0,1-2.945,1.843Zm-5.8-12.361a16.424,16.424,0,0,0,.626,5.666,8.5,8.5,0,0,0,4.857,5.593,1.17,1.17,0,0,0,1.045.01,8.684,8.684,0,0,0,4.6-4.712,14.51,14.51,0,0,0,.934-6.121,1.191,1.191,0,0,0-.079-.286c-.631-.077-1.235-.114-1.824-.231a11.273,11.273,0,0,1-3.738-1.576.648.648,0,0,0-.807.019,13.219,13.219,0,0,1-1.994,1.061,9.063,9.063,0,0,1-3.616.575" transform="translate(-97.563 -99.579)" fill="#007530"/>
      <path id="Path_62276" data-name="Path 62276" d="M41.35,104.726c1.6,0,3.2,0,4.8,0,.345,0,.658.037.791.416a.625.625,0,0,1-.5.875,2.835,2.835,0,0,1-.641.07q-4.638.006-9.276,0c-.624,0-.862-.166-.908-.6-.052-.487.215-.754.8-.758,1.427-.009,2.854,0,4.281,0h.649" transform="translate(-30.967 -91.064)" fill="#007530"/>
      <path id="Path_62277" data-name="Path 62277" d="M43.814,167.385l.312,1.272a3.389,3.389,0,0,1-.5.077q-3.535.007-7.071,0c-.673,0-.9-.183-.915-.657a.6.6,0,0,1,.487-.667.557.557,0,0,1,.127-.024h7.559" transform="translate(-30.992 -145.552)" fill="#007530"/>
      <path id="Path_62278" data-name="Path 62278" d="M43.527,135.777l.068,1.3c-.2.02-.362.05-.528.05-2.141,0-4.281.006-6.422,0-.2,0-.485-.029-.587-.159a.945.945,0,0,1-.177-.7c.041-.182.284-.36.478-.454a1.407,1.407,0,0,1,.575-.036q2.951,0,5.9,0h.69" transform="translate(-31.189 -118.059)" fill="#007530"/>
      <path id="Path_62279" data-name="Path 62279" d="M39.087,74.6c-.8,0-1.6,0-2.4,0a3.73,3.73,0,0,1-.517-.025.581.581,0,0,1-.542-.617.6.6,0,0,1,.535-.69,3.558,3.558,0,0,1,.58-.036q2.4,0,4.8,0c.13,0,.26,0,.389.008.5.045.769.3.753.708-.016.383-.273.61-.744.647-.15.012-.3.007-.453.007h-2.4" transform="translate(-30.982 -63.673)" fill="#007530"/>
      <path id="Path_62280" data-name="Path 62280" d="M37.871,45.393c-.516,0-1.033,0-1.549,0a.6.6,0,0,1-.682-.608.609.609,0,0,1,.645-.721q1.548-.046,3.1,0a.611.611,0,0,1,.653.715.6.6,0,0,1-.68.614c-.495-.006-.99,0-1.485,0" transform="translate(-30.989 -38.297)" fill="#007530"/>
      <path id="Path_62281" data-name="Path 62281" d="M165.257,132.409a8.574,8.574,0,0,0,4.588,1.5c.478,3.223-.778,7.609-4.588,8.774Z" transform="translate(-143.702 -115.138)" fill="#007530"/>
    </g>
  </g>
</svg>
