<svg id="Group_41872" data-name="Group 41872" xmlns="http://www.w3.org/2000/svg" xmlns:xlink="http://www.w3.org/1999/xlink" width="27.541" height="27.607" viewBox="0 0 27.541 27.607">
  <defs>
    <clipPath id="clip-path">
      <rect id="Rectangle_18285" data-name="Rectangle 18285" width="27.542" height="27.607" fill="#007530"/>
    </clipPath>
  </defs>
  <g id="Group_41873" data-name="Group 41873" clip-path="url(#clip-path)">
    <path id="Path_62248" data-name="Path 62248" d="M11.251,27.407A14.358,14.358,0,0,1,2.374,21.5,13.217,13.217,0,0,1,0,14.071,13.454,13.454,0,0,1,5.079,3.107,13.516,13.516,0,0,1,12.334.085,13.7,13.7,0,0,1,26.555,8.816a13.261,13.261,0,0,1-2.063,13.5,13.4,13.4,0,0,1-2.1,2.163,13.9,13.9,0,0,1-11.141,2.922M13.789,2.7A11.073,11.073,0,1,0,24.82,13.664,11.069,11.069,0,0,0,13.789,2.7" transform="translate(0 -0.001)" fill="#007530"/>
    <path id="Path_62249" data-name="Path 62249" d="M78.276,54.74c.311,0,.624.013.934,0a.435.435,0,0,1,.529.38,1.258,1.258,0,0,0,.794.9,1.294,1.294,0,0,0,1.446-.254,1.259,1.259,0,0,0,.408-1.406,1.337,1.337,0,0,0-1.1-.978c-.326-.057-.662-.059-.988-.118a4.2,4.2,0,0,1-.8-8.042c.593-.231.491-.257.494-.767.005-.891-.106-.832.839-.823.311,0,.623.006.934,0,.234,0,.333.1.342.335a2.227,2.227,0,0,0,.111,1.023c.15.236.578.283.863.448a4.248,4.248,0,0,1,2.141,3.124c.081.485.02.56-.455.566-.623.008-1.246-.012-1.869,0a.463.463,0,0,1-.53-.385,1.3,1.3,0,0,0-1.332-1,1.384,1.384,0,0,0-1.382,1.325A1.4,1.4,0,0,0,80.9,50.514a8.7,8.7,0,0,1,1.291.177,4.222,4.222,0,0,1,.487,7.944c-.564.235-.57.235-.567.856,0,.849,0,.78-.783.779-.332,0-.664-.008-1-.006-.231,0-.344-.1-.34-.335s-.01-.5,0-.747a.4.4,0,0,0-.323-.452,4.112,4.112,0,0,1-2.8-3.619c-.016-.262.07-.383.346-.373.352.013.706,0,1.059,0" transform="translate(-67.266 -38.184)" fill="#007530"/>
  </g>
</svg>
