<svg id="Group_41871" data-name="Group 41871" xmlns="http://www.w3.org/2000/svg" xmlns:xlink="http://www.w3.org/1999/xlink" width="27.498" height="27.496" viewBox="0 0 27.498 27.496">
  <defs>
    <clipPath id="clip-path">
      <rect id="Rectangle_18284" data-name="Rectangle 18284" width="27.497" height="27.496" fill="#007530"/>
    </clipPath>
  </defs>
  <g id="Group_41871-2" data-name="Group 41871" clip-path="url(#clip-path)">
    <path id="Path_62247" data-name="Path 62247" d="M15.417,2.468A1.687,1.687,0,0,0,13.77,4.409h3.394a1.7,1.7,0,0,0-1.748-1.942m0,0A1.687,1.687,0,0,0,13.77,4.409h3.394a1.7,1.7,0,0,0-1.748-1.942M26.28,0q-7.148,0-14.3,0c-.823,0-1.2.376-1.2,1.2q0,4.709,0,9.415a1.027,1.027,0,0,0,1.072,1.2,1.419,1.419,0,0,1,1.369,1.5c.006.625,0,1.248,0,1.972.2-.117.318-.186.435-.263,1.5-1,2.991-2,4.5-2.983a1.476,1.476,0,0,1,.765-.222c2.441-.018,4.883-.012,7.324-.012.876,0,1.24-.366,1.24-1.248q0-4.666,0-9.33C27.494.368,27.134,0,26.28,0m-8.137,7.34a.458.458,0,0,1-.485.5.475.475,0,0,1-.465-.522c-.014-.623,0-1.244,0-1.9H13.736V6.95c0,.129.008.261,0,.392a.486.486,0,0,1-.489.5.468.468,0,0,1-.461-.522c-.008-.886-.01-1.772,0-2.658a5.341,5.341,0,0,1,.075-1.08A2.643,2.643,0,0,1,15.6,1.513,2.591,2.591,0,0,1,18.109,3.9c.073,1.143.038,2.294.034,3.441m7.429-1.458a5.509,5.509,0,0,1-.554.03A5.07,5.07,0,0,1,23.9,9.221c.453.057.821.1,1.189.15a.437.437,0,0,1,.409.479.447.447,0,0,1-.447.447,1.09,1.09,0,0,1-.3,0c-.467-.1-.928-.216-1.4-.3a1.649,1.649,0,0,0-.572,0c-.481.089-.955.231-1.44.3-.451.061-.69-.119-.7-.445s.172-.455.621-.5c.285-.03.568-.079.88-.123-.253-.463-.471-.852-.678-1.248a1.73,1.73,0,0,1-.123-.37c-.1-.37.01-.613.305-.7.265-.081.463.069.6.413a8.312,8.312,0,0,0,.423.9,4.018,4.018,0,0,0,.394.494,3.793,3.793,0,0,0,.987-2.818h-.479c-.959,0-1.917.006-2.874,0a.517.517,0,0,1-.566-.479c0-.263.233-.457.57-.469.146-.006.291,0,.437,0h1.448c0-.336-.012-.635,0-.934.018-.35.218-.556.5-.532a.446.446,0,0,1,.443.492c.006.3,0,.6,0,.975h1.145c.291,0,.583-.008.872.008a.431.431,0,0,1,.435.453.446.446,0,0,1-.411.481M15.417,2.468A1.687,1.687,0,0,0,13.77,4.409h3.394a1.7,1.7,0,0,0-1.748-1.942M14.181,16.177a1.377,1.377,0,0,0-.934.271c-.423.334-.726.34-1.021-.227H6.859a24.637,24.637,0,0,0,.678,5.326,21.89,21.89,0,0,1,8.491,0,25.586,25.586,0,0,0,.678-5.362c-.876,0-1.7.008-2.524,0M6.1,18.966c-.113-.914-.156-1.837-.229-2.753H0A11.685,11.685,0,0,0,2.767,23.3c1.3-.562,2.546-1.1,3.77-1.624-.146-.88-.328-1.79-.439-2.708M17.761,16.22c-.233,1.879-.459,3.712-.692,5.578a12.906,12.906,0,0,1,3.655,1.584,11.74,11.74,0,0,0,2.84-7.162ZM4.664,9c-.621-.267-1.212-.6-1.816-.906C1.341,9.474-.222,13.513.1,15.222H5.8c.239-1.893.471-3.724.7-5.548C5.91,9.46,5.273,9.264,4.664,9M7.789,22.478a11.444,11.444,0,0,0,1.386,3.174,6.323,6.323,0,0,0,.949,1.127,2.246,2.246,0,0,0,2.152.653,2.922,2.922,0,0,0,1.479-.949,10.3,10.3,0,0,0,2.025-4,20.274,20.274,0,0,0-7.989,0m4.462-9.29c-.008-.144-.229-.293-.378-.4-.083-.059-.227-.032-.34-.051a1.943,1.943,0,0,1-1.705-1.948c0-.182,0-.364,0-.548L7.536,9.9a24.629,24.629,0,0,0-.678,5.309h5.411c0-.7.022-1.365-.018-2.027m11.035-.012c-.042-.326-.186-.421-.51-.419-1.116.01-2.233.024-3.345-.034a2.871,2.871,0,0,0-1.764.8.246.246,0,0,0-.083.184c.02.5.051,1,.077,1.521h5.947c-.113-.716-.235-1.379-.322-2.049m-6.509,9.575c-.318.767-.587,1.549-.963,2.275s-.876,1.422-1.337,2.158a11.7,11.7,0,0,0,5.546-3.064,9.057,9.057,0,0,0-3.246-1.369M7.753,25.038c-.382-.738-.653-1.533-.981-2.326A10.974,10.974,0,0,0,3.517,24.1a11.716,11.716,0,0,0,5.57,3.076c-.469-.74-.959-1.412-1.335-2.142M3.517,7.336A11.189,11.189,0,0,0,6.849,8.724,12.109,12.109,0,0,1,9.1,4.284,11.319,11.319,0,0,0,3.517,7.336M7.789,8.98l2.017.279V5.105A8.992,8.992,0,0,0,7.789,8.98m7.421,6.153c.012.024.024.047.034.071h1.43V14.191l-1.464.943" transform="translate(0 0)" fill="#007530"/>
  </g>
</svg>
