<svg xmlns="http://www.w3.org/2000/svg" width="22.205" height="19.393" viewBox="0 0 22.205 19.393">
  <path id="Path_62255" data-name="Path 62255" d="M-26.185,1377.415v.007a.007.007,0,0,1-.007-.007c-7.621-5.244-12.192-11.358-10.874-15.669a5.529,5.529,0,0,1,2.783-3.373,4.341,4.341,0,0,1,1.732-.344c2.033,0,4.389,1.22,6.366,3.436,1.97-2.216,4.319-3.436,6.352-3.436a4.375,4.375,0,0,1,1.739.344,5.529,5.529,0,0,1,2.783,3.373C-13.993,1366.057-18.564,1372.171-26.185,1377.415Z" transform="translate(37.291 -1358.029)" fill="#007530"/>
</svg>
