<svg id="Group_41877" data-name="Group 41877" xmlns="http://www.w3.org/2000/svg" xmlns:xlink="http://www.w3.org/1999/xlink" width="26.535" height="26.504" viewBox="0 0 26.535 26.504">
  <defs>
    <clipPath id="clip-path">
      <rect id="Rectangle_18287" data-name="Rectangle 18287" width="26.535" height="26.505" fill="#007530"/>
    </clipPath>
  </defs>
  <g id="Group_41876" data-name="Group 41876" clip-path="url(#clip-path)">
    <path id="Path_62253" data-name="Path 62253" d="M0,13.27Q0,8.743,0,4.215A3.93,3.93,0,0,1,4.179,0Q6.619,0,9.06,0c.945,0,1.525.5,1.53,1.292s-.576,1.3-1.516,1.3c-1.58.011-3.16,0-4.74.006C3.1,2.613,2.607,3.093,2.606,4.32q-.008,8.949,0,17.9c0,1.185.5,1.672,1.69,1.68,1.58.011,3.16,0,4.74.006.983.006,1.582.534,1.553,1.337S9.992,26.5,9.027,26.5c-1.674,0-3.349.012-5.023,0a3.9,3.9,0,0,1-4-4.031c-.012-3.065,0-6.131,0-9.2" transform="translate(0 -0.001)" fill="#007530"/>
    <path id="Path_62254" data-name="Path 62254" d="M69.885,46.688h-.751q-5.769,0-11.538,0a1.44,1.44,0,0,1-1.423-.727,1.063,1.063,0,0,1,.138-1.37,2.362,2.362,0,0,1,1.366-.539c3.822-.042,7.644-.024,11.466-.024h.889c-.257-.28-.4-.452-.562-.611-1.249-1.253-2.51-2.5-3.747-3.76a1.313,1.313,0,0,1-.05-1.843,1.3,1.3,0,0,1,1.9,0q3.321,3.285,6.608,6.6a1.266,1.266,0,0,1-.006,1.892Q70.91,49.6,67.618,52.865A1.313,1.313,0,1,1,65.777,51c1.378-1.39,2.772-2.764,4.159-4.144l-.051-.169" transform="translate(-48.065 -32.107)" fill="#007530"/>
  </g>
</svg>
