<svg xmlns="http://www.w3.org/2000/svg" width="25.1" height="27.607" viewBox="0 0 25.1 27.607">
  <path id="Path_62248" data-name="Path 62248" d="M223.655,164.821c.782.439,1.6.827,2.349,1.331a12.261,12.261,0,0,1,5.4,8.516,1.226,1.226,0,0,1-.871,1.462,1.152,1.152,0,0,1-1.423-1.016,8.3,8.3,0,0,0-1-3.488,9.886,9.886,0,0,0-7.589-5.359,10.272,10.272,0,0,0-6.879,1.222,9.957,9.957,0,0,0-4.99,7.13,2.905,2.905,0,0,0-.012.485,1.166,1.166,0,0,1-1.133,1.176,1.243,1.243,0,0,1-1.175-1.16,6.992,6.992,0,0,1,.369-2.142,12.16,12.16,0,0,1,7.255-8.027c.053-.023.106-.047.184-.082-.054-.047-.092-.086-.135-.117a8.856,8.856,0,0,1,2.674-15.8,8.817,8.817,0,0,1,8.179,14.911,6.985,6.985,0,0,1-.6.518c-.207.164-.426.312-.6.438m1.8-7.45a6.583,6.583,0,1,0-6.61,6.579,6.594,6.594,0,0,0,6.61-6.579" transform="translate(-206.33 -148.672)" fill="#007530"/>
</svg>
