<svg id="Group_41875" data-name="Group 41875" xmlns="http://www.w3.org/2000/svg" xmlns:xlink="http://www.w3.org/1999/xlink" width="26.762" height="33.676" viewBox="0 0 26.762 33.676">
  <defs>
    <clipPath id="clip-path">
      <rect id="Rectangle_18286" data-name="Rectangle 18286" width="26.762" height="33.677" fill="#007530"/>
    </clipPath>
  </defs>
  <g id="Group_41875-2" data-name="Group 41875" clip-path="url(#clip-path)">
    <path id="Path_62249" data-name="Path 62249" d="M16.255,95.972l-2.867-4.94-2.864,4.938L0,91.185c.1-.213.162-.386.253-.544.779-1.358,1.555-2.717,2.35-4.065a1.364,1.364,0,0,1,.524-.545c1.995-.928,4-1.83,6.05-2.759l.991,1.184-5.426,2.45a4.657,4.657,0,0,0,.435.267c2.564,1.174,5.132,2.339,7.691,3.523a1.069,1.069,0,0,0,1,.023c2.623-1.215,5.256-2.409,7.885-3.61.084-.038.16-.092.322-.186l-5.437-2.45.951-1.207,3.389,1.543c.841.382,1.69.749,2.52,1.154a1.524,1.524,0,0,1,.629.529c.861,1.447,1.691,2.913,2.528,4.374a2.087,2.087,0,0,1,.109.326L16.255,95.972" transform="translate(0 -71.398)" fill="#007530"/>
    <path id="Path_62250" data-name="Path 62250" d="M28.4,161.1l2.129-4.02,2.119,4.023L41,157.127a2.574,2.574,0,0,1,.1.482c.007,1.8,0,3.607.011,5.411a.677.677,0,0,1-.448.711q-4.869,2.254-9.723,4.539a.857.857,0,0,1-.8.006q-4.855-2.282-9.722-4.54c-.26-.121-.426-.255-.424-.574.011-1.922.008-3.844.014-5.767a1.077,1.077,0,0,1,.084-.254L28.4,161.1" transform="translate(-17.137 -134.696)" fill="#007530"/>
    <path id="Path_62251" data-name="Path 62251" d="M59.191,14.982c-.744-.925-1.442-1.791-2.138-2.658q-1.158-1.443-2.313-2.889A5.752,5.752,0,0,1,58.19.1a5.7,5.7,0,0,1,6.656,4.488A5.7,5.7,0,0,1,63.6,9.511c-1.294,1.608-2.578,3.224-3.868,4.835-.159.2-.33.388-.542.636m.049-7.345a2.006,2.006,0,0,0,2.016-2.113A2.06,2.06,0,1,0,59.24,7.637" transform="translate(-45.813 0)" fill="#007530"/>
  </g>
</svg>
