<svg xmlns="http://www.w3.org/2000/svg" xmlns:xlink="http://www.w3.org/1999/xlink" width="28.381" height="30.17" viewBox="0 0 28.381 30.17">
  <defs>
    <clipPath id="clip-path">
      <rect id="Rectangle_18288" data-name="Rectangle 18288" width="28.381" height="30.169" fill="#007530"/>
    </clipPath>
  </defs>
  <g id="Group_41874" data-name="Group 41874" transform="translate(0 -3)">
    <g id="Group_41878" data-name="Group 41878" transform="translate(0 3)" clip-path="url(#clip-path)">
      <path id="Path_62265" data-name="Path 62265" d="M95.572,51.325V49.513a3.885,3.885,0,0,1,3.082.96,3.993,3.993,0,0,1,1.376,3.04c.026,1.174.008,2.348.007,3.522q0,7.348-.013,14.7a3.79,3.79,0,0,1-1.241,2.848,3.719,3.719,0,0,1-2.629,1.072q-7.206,0-14.412,0A3.919,3.919,0,0,1,78.03,72.7a3.761,3.761,0,0,1-.053-.4h1.816c.035.064.1.18.159.294a2.039,2.039,0,0,0,1.895,1.162q7.1,0,14.21,0a2.122,2.122,0,0,0,2.168-2.023c.014-.148.015-.3.015-.445q0-8.5-.008-17a10.364,10.364,0,0,0-.05-1.051,2.01,2.01,0,0,0-1.908-1.814q-.3-.019-.6-.045c-.024,0-.047-.025-.1-.052" transform="translate(-71.663 -45.483)" fill="#007530"/>
      <path id="Path_62266" data-name="Path 62266" d="M15.328,115.981A14.6,14.6,0,0,1,13.363,123a12.571,12.571,0,0,1-4.672,4.49,2,2,0,0,1-1.94.062,11.139,11.139,0,0,1-6.569-8.989A25.322,25.322,0,0,1,0,115.3a1.89,1.89,0,0,1,1.921-2.017,9.122,9.122,0,0,0,4.58-1.539,1.948,1.948,0,0,1,2.377,0,8.6,8.6,0,0,0,4.287,1.528c1.619.136,2.2.809,2.163,2.712m-13.682.2-.076.01c.133,1,.2,2.013.412,3a9.42,9.42,0,0,0,5.234,6.749.828.828,0,0,0,.9-.03,10.941,10.941,0,0,0,4.737-5.705,15.454,15.454,0,0,0,.83-4.759c.014-.389-.063-.465-.454-.515-.08-.01-.161-.015-.242-.02a9.367,9.367,0,0,1-4.8-1.642.764.764,0,0,0-1.009,0,8.987,8.987,0,0,1-3.1,1.345c-.629.141-1.273.217-1.913.306-.481.067-.522.1-.526.572,0,.229,0,.459,0,.688" transform="translate(0 -102.322)" fill="#007530"/>
      <path id="Path_62267" data-name="Path 62267" d="M163.294,3.027c.274,0,.529,0,.784,0a1.406,1.406,0,0,1,1.41,1.417q.011.688,0,1.376a1.387,1.387,0,0,1-1.405,1.42q-3.825.014-7.649,0a1.368,1.368,0,0,1-1.409-1.405c-.007-.459-.006-.917,0-1.376a1.394,1.394,0,0,1,1.429-1.435c.253-.006.506,0,.791,0A3.039,3.039,0,0,1,158.39.633a2.966,2.966,0,0,1,2-.63c1.557.055,2.49,1.007,2.905,3.024M158.713,3h3.074a1.538,1.538,0,1,0-3.074,0" transform="translate(-142.467 0)" fill="#007530"/>
      <path id="Path_62268" data-name="Path 62268" d="M140.447,289.166a13.459,13.459,0,0,0,.92-1,1.219,1.219,0,0,1,1.107-.488c3.156.02,6.312.01,9.468.011a3.512,3.512,0,0,1,.524.023.689.689,0,0,1,.613.649.709.709,0,0,1-.514.772,1.24,1.24,0,0,1-.357.049q-5.765,0-11.531,0c-.066,0-.131-.009-.229-.016" transform="translate(-129.075 -264.383)" fill="#007530"/>
      <path id="Path_62269" data-name="Path 62269" d="M179.487,238.975c.21-.474.386-.923.612-1.345.051-.094.277-.131.423-.132,1.5-.009,2.995-.006,4.492-.006,1.025,0,2.051,0,3.076,0a.772.772,0,0,1,.865.67.705.705,0,0,1-.537.793,1.754,1.754,0,0,1-.44.048q-4.067,0-8.135,0c-.1,0-.206-.017-.358-.03" transform="translate(-164.954 -218.261)" fill="#007530"/>
      <path id="Path_62270" data-name="Path 62270" d="M196.781,188.862l.232-1.478c.143-.011.26-.027.378-.027q3.295,0,6.59,0a.823.823,0,0,1,.824.469.68.68,0,0,1-.177.811,1.507,1.507,0,0,1-.746.219c-1.509.019-3.018.009-4.528.009h-2.574" transform="translate(-180.848 -172.183)" fill="#007530"/>
      <path id="Path_62271" data-name="Path 62271" d="M195.637,137.783l-.537-1.44a1.808,1.808,0,0,1,.222-.027q3.559,0,7.118,0a.773.773,0,0,1,.845.542.735.735,0,0,1-.635.938,1.628,1.628,0,0,1-.2.009q-3.235,0-6.471,0c-.119,0-.239-.014-.34-.02" transform="translate(-179.303 -125.277)" fill="#007530"/>
      <path id="Path_62272" data-name="Path 62272" d="M82.425,51.422c-.175.013-.333.03-.492.037a2.092,2.092,0,0,0-2.122,1.726H78.062a3.858,3.858,0,0,1,4.362-3.609Z" transform="translate(-71.735 -45.531)" fill="#007530"/>
      <path id="Path_62273" data-name="Path 62273" d="M51.58,183.992a2.681,2.681,0,0,1-.7-.445,9.493,9.493,0,0,1-1.419-2.48,1.325,1.325,0,0,1-.074-.272c-.05-.331.174-.532.484-.408a3.11,3.11,0,0,1,.663.376,8.442,8.442,0,0,1,.84.7c.2.192.345.161.549,0,.94-.744,1.886-1.482,2.845-2.2.408-.306.854-.563,1.288-.833a.85.85,0,0,1,.335-.124c.252-.03.373.1.28.339a1.925,1.925,0,0,1-.351.583c-1.324,1.454-2.652,2.9-4,4.338a3.17,3.17,0,0,1-.746.434" transform="translate(-45.385 -163.858)" fill="#007530"/>
    </g>
  </g>
</svg>
