<svg id="Group_41873" data-name="Group 41873" xmlns="http://www.w3.org/2000/svg" xmlns:xlink="http://www.w3.org/1999/xlink" width="29.734" height="29.471" viewBox="0 0 29.734 29.471">
  <defs>
    <clipPath id="clip-path">
      <rect id="Rectangle_18286" data-name="Rectangle 18286" width="29.734" height="29.47" fill="#007530"/>
    </clipPath>
  </defs>
  <g id="Group_41874" data-name="Group 41874" clip-path="url(#clip-path)">
    <path id="Path_62250" data-name="Path 62250" d="M105.835,7.139c0,1.087.007,2.174,0,3.261a4.67,4.67,0,0,1-2.1,4.1q-2.325,1.561-4.643,3.132a.522.522,0,0,1-.668,0c-1.618-1.1-3.256-2.179-4.862-3.3a4.246,4.246,0,0,1-1.851-3.525c-.059-2.494-.021-4.991-.026-7.486,0-.266.032-.5.371-.514a9.888,9.888,0,0,0,4.484-1.487C97.179.971,97.79.559,98.393.142a.54.54,0,0,1,.731,0,14.449,14.449,0,0,0,5.158,2.519,4.406,4.406,0,0,0,1,.137c.422,0,.569.164.564.574-.014,1.255-.005,2.511-.005,3.766Zm-7.63,2.212c-.573-.591-1.077-1.142-1.615-1.657a1.1,1.1,0,0,0-1.553,1.552q1.2,1.234,2.44,2.427a1.041,1.041,0,0,0,1.458,0q2.014-1.977,3.99-3.993a1.083,1.083,0,0,0-.033-1.5,1.13,1.13,0,0,0-1.506-.046c-.2.166-.375.36-.557.545-.856.869-1.711,1.74-2.623,2.668" transform="translate(-83.247 0)" fill="#007530"/>
    <path id="Path_62251" data-name="Path 62251" d="M20.485,197.338a5.236,5.236,0,0,0-.624-.321c-.849-.305-1.7-.621-2.559-.881a21.155,21.155,0,0,1-4.369-1.892,4.891,4.891,0,0,0-3.346-.89,19.043,19.043,0,0,0-2.631.762c-.649.224-1.258.558-1.9.809a.416.416,0,0,0-.3.52c.191,1.518.374,3.036.56,4.555.025.207.062.391.35.368a15.106,15.106,0,0,1,6.549,1.335,7.8,7.8,0,0,0,4.544.555,12.006,12.006,0,0,0,3.012-1.182,34.169,34.169,0,0,0,7.4-5.319,7.441,7.441,0,0,0,1.035-1.333c.111-.172.051-.455.068-.687-.217.01-.474-.052-.644.042-1.1.607-2.178,1.242-3.256,1.881-.395.234-.763.512-1.151.759a.675.675,0,0,1-.972-.154.65.65,0,0,1,.181-.933c1.478-.922,2.972-1.82,4.465-2.716a2.3,2.3,0,0,1,.559-.2,1.6,1.6,0,0,1,1.813.383,1.772,1.772,0,0,1,.309,1.928,5.705,5.705,0,0,1-1.568,2.126,36.156,36.156,0,0,1-9.16,6.214,8.927,8.927,0,0,1-6.677.073c-1.2-.373-2.354-.884-3.568-1.169a15.976,15.976,0,0,0-2.828-.226.473.473,0,0,0-.368.235,1.7,1.7,0,0,1-1.555,1.1c-.38.041-.761.077-1.141.123a1.61,1.61,0,0,1-1.89-1.484q-.413-3.348-.816-6.7a1.59,1.59,0,0,1,1.253-1.731,8.9,8.9,0,0,1,1.776-.185,2.169,2.169,0,0,1,1.076.4.583.583,0,0,0,.648.1c1.026-.44,2.04-.917,3.093-1.28a5.863,5.863,0,0,1,5.1.408,36.362,36.362,0,0,0,6.989,2.866,5.166,5.166,0,0,1,1.451.764,1.269,1.269,0,0,1-.282,2.278,9.12,9.12,0,0,1-2.466.426,16.11,16.11,0,0,1-7.024-1.318.7.7,0,0,1-.466-.913.714.714,0,0,1,.957-.358c1.2.361,2.383.8,3.6,1.05a12.753,12.753,0,0,0,4.3.062,3.453,3.453,0,0,0,.437-.116l.034-.131M3.209,195.9a.784.784,0,0,0-.734-.874.753.753,0,0,0-.759.793.789.789,0,0,0,.765.849.726.726,0,0,0,.729-.768" transform="translate(0 -174.279)" fill="#007530"/>
  </g>
</svg>
