<svg xmlns="http://www.w3.org/2000/svg" width="28.713" height="28.851" viewBox="0 0 28.713 28.851">
  <path id="whatsapp" d="M24.78,4.193a14.3,14.3,0,0,0-22.5,17.25L.25,28.851l7.579-1.988a14.281,14.281,0,0,0,6.832,1.74h.006A14.3,14.3,0,0,0,24.78,4.193Zm-10.113,22h0a11.868,11.868,0,0,1-6.048-1.656l-.434-.258-4.5,1.18,1.2-4.385L4.6,20.62a11.883,11.883,0,1,1,10.066,5.569Zm6.518-8.9c-.357-.179-2.113-1.043-2.441-1.162s-.566-.179-.8.179-.923,1.162-1.131,1.4-.417.268-.774.089a9.757,9.757,0,0,1-2.873-1.773,10.775,10.775,0,0,1-1.987-2.474c-.208-.358,0-.533.157-.729a10.1,10.1,0,0,0,.893-1.222.657.657,0,0,0-.03-.626c-.089-.179-.8-1.937-1.1-2.653-.29-.7-.584-.6-.8-.613s-.446-.013-.685-.013a1.312,1.312,0,0,0-.953.447,4.007,4.007,0,0,0-1.25,2.98,6.949,6.949,0,0,0,1.459,3.7,15.923,15.923,0,0,0,6.1,5.394A20.446,20.446,0,0,0,17,20.962a4.9,4.9,0,0,0,2.25.142,3.68,3.68,0,0,0,2.411-1.7,2.985,2.985,0,0,0,.208-1.7c-.089-.149-.327-.238-.684-.417Zm0,0" transform="translate(-0.25)" fill="#007530" fill-rule="evenodd"/>
</svg>
